<?xml version="1.0" encoding="utf-8"?>
<!-- Generator: Adobe Illustrator 23.0.0, SVG Export Plug-In . SVG Version: 6.00 Build 0)  -->
<svg version="1.1" id="Layer_1" xmlns="http://www.w3.org/2000/svg" xmlns:xlink="http://www.w3.org/1999/xlink" x="0px" y="0px"
	 viewBox="0 0 1920 1080" style="enable-background:new 0 0 1920 1080;" xml:space="preserve">
<style type="text/css">
	.st0{fill:url(#SVGID_1_);}
	.st1{fill:url(#SVGID_2_);stroke:#707070;}
	.st2{fill:#FF7C50;}
	.st3{fill:none;stroke:#707070;}
	.st4{fill:#FF4000;}
	.st5{fill:#FF4000;stroke:#707070;}
	.st6{fill:#99F3FF;}
	.st7{fill:#99F3FF;stroke:#707070;}
	.st8{fill:#091442;}
	.st9{fill:#091442;stroke:#707070;}
	.st10{fill:#79D56F;}
	.st11{fill:#CC4651;}
	.st12{fill:#10A400;}
	.st13{fill:#B82632;}
	.st14{fill:#FFFFFF;}
	.st15{font-family:'UniviaPro-Medium';}
	.st16{font-size:105.4967px;}
	.st17{font-size:37.5736px;}
</style>
<g id="Retângulo_67_4_">
	<radialGradient id="SVGID_1_" cx="3111.5881" cy="620.5294" r="2535.6257" gradientUnits="userSpaceOnUse">
		<stop  offset="0" style="stop-color:#B82632"/>
		<stop  offset="1" style="stop-color:#000000"/>
	</radialGradient>
	<rect x="2196.8" y="-17" class="st0" width="1950" height="1114"/>
	<radialGradient id="SVGID_2_" cx="3111.5881" cy="620.5294" r="2535.6257" gradientUnits="userSpaceOnUse">
		<stop  offset="0" style="stop-color:#B82632"/>
		<stop  offset="1" style="stop-color:#000000"/>
	</radialGradient>
	<rect x="2204.7" y="-13.4" class="st1" width="1934.3" height="1106.9"/>
</g>
<g id="Retângulo_67">
	<rect x="-450" class="st2" width="124" height="124"/>
	<rect x="-449.5" y="0.4" class="st3" width="123" height="123.2"/>
</g>
<g id="Retângulo_67_1_">
	<rect x="-450" y="137" class="st4" width="124" height="124"/>
	<rect x="-449.5" y="137.4" class="st5" width="123" height="123.2"/>
</g>
<g id="Retângulo_67_3_">
	<rect x="-600" class="st6" width="124" height="124"/>
	<rect x="-599.5" y="0.4" class="st7" width="123" height="123.2"/>
</g>
<g id="Retângulo_67_2_">
	<rect x="-600" y="137" class="st8" width="124" height="124"/>
	<rect x="-599.5" y="137.4" class="st9" width="123" height="123.2"/>
</g>
<rect x="-173.5" y="0.5" class="st10" width="123" height="123"/>
<rect x="-311" y="1" class="st11" width="123" height="123"/>
<rect x="-173.5" y="137.5" class="st12" width="123" height="123"/>
<rect x="-311" y="138" class="st13" width="123" height="123"/>
<rect x="-311" y="-452" class="st13" width="123" height="123"/>
<path class="st9" d="M1111.2-655.2L959.7-777.7c-13.3-10.8-33.2-1.3-33.2,15.8v302.7l29-243.4c1.7-14,16.7-22.1,29.3-15.8
	L1111.2-655.2z"/>
<rect x="2558.9" y="695.7" class="st13" width="147.5" height="36"/>
<text transform="matrix(1 0 0 1 2597.1467 722.6609)" class="st15" style="fill:#870F21; font-size:23.4331px;">TEAM</text>
<g>
	<text transform="matrix(1 0 0 1 835.0005 -145.9615)" class="st15" style="fill:#F2F2F2; font-size:37.8788px;">DATA MIRROR</text>
	<g>
		<path class="st13" d="M911-208.4h-8.4c-6.8,0-12.4-5.5-12.4-12.4v-194.6c0-6.8,5.5-12.4,12.4-12.4h8.4c6.8,0,12.4,5.5,12.4,12.4
			v194.6C923.3-214,917.8-208.4,911-208.4z"/>
		<path class="st13" d="M910.1-427.4v218.7l107.6-22.4c7-1.5,12.1-7.7,12.1-14.9v-138.7c0-6.9-4.7-13-11.4-14.7L910.1-427.4z
			 M1006.3-242.5l-85.5,14.1v-179.3l86.2,18.5c7,1.5,12,7.7,12,14.8v116.9C1019.1-250,1013.7-243.7,1006.3-242.5z"/>
	</g>
</g>
<g>
	<text transform="matrix(1 0 0 1 128.044 -459.1509)"><tspan x="0" y="0" class="st14 st15" style="font-size:19.2457px;">DATA</tspan><tspan x="0" y="23.1" class="st14 st15" style="font-size:19.2457px;">MIRROR</tspan></text>
	<g>
		<path class="st14" d="M54.8-403.4L54.8-403.4c-4.6,0-8.4-3.8-8.4-8.4v-94.6c0-4.6,3.8-8.4,8.4-8.4h0c4.6,0,8.4,3.8,8.4,8.4v94.6
			C63.2-407.2,59.4-403.4,54.8-403.4z"/>
		<path class="st14" d="M56.5-514.7v111.1l54.7-11.4c3.6-0.7,6.1-3.9,6.1-7.6V-493c0-3.5-2.4-6.6-5.8-7.5L56.5-514.7z M105.4-420.7
			l-43.4,7.2v-91.1l43.8,9.4c3.6,0.8,6.1,3.9,6.1,7.5v59.4C111.8-424.6,109.1-421.4,105.4-420.7z"/>
	</g>
</g>
<g id="Grupo_34" transform="translate(-50.762 -1.197)">
	<path id="Retângulo_70" class="st14" d="M-444.9,545.2L-444.9,545.2c10.9,0,19.7,8.8,19.7,19.7v221.4c0,10.9-8.8,19.7-19.7,19.7
		l0,0c-10.9,0-19.7-8.8-19.7-19.7V564.9C-464.6,554-455.8,545.2-444.9,545.2z"/>
	<path id="Caminho_11" class="st14" d="M-440.9,545.6v260l128-26.6c8.4-1.7,14.4-9.1,14.4-17.7V596.4c0-8.2-5.5-15.4-13.5-17.5
		L-440.9,545.6z M-326.5,765.4l-101.6,16.7V568.9l102.5,22c8.3,1.8,14.3,9.1,14.3,17.6v139C-311.3,756.5-317.7,764-326.5,765.4
		L-326.5,765.4z"/>
</g>
<path class="st14" d="M-383,804.4L-383,804.4c-6.3,0-11.4-5.1-11.4-11.4v-15.4c0-2.7,2.2-4.8,4.8-4.8h13c2.7,0,4.8,2.2,4.8,4.8V793
	C-371.7,799.3-376.7,804.4-383,804.4z"/>
<path class="st14" d="M-495.6,818.3L-495.6,818.3c-10.9,0-19.7-8.8-19.7-19.7V750c0-7.3,5.9-13.2,13.2-13.2h13
	c7.3,0,13.2,5.9,13.2,13.2v48.6C-475.9,809.5-484.8,818.3-495.6,818.3z"/>
<g>
	<text transform="matrix(1 0 0 1 693.5708 566.8707)" class="st14 st15 st16">REACT  ion</text>
	<text transform="matrix(1 0 0 1 1135.0557 597.5054)" class="st14 st15 st17">team</text>
	<path class="st14" d="M1131.4,388.6c0,0-112.4,83-142.8,302.7C988.6,691.4,1024.6,556.7,1131.4,388.6z"/>
</g>
<g>
	<text transform="matrix(1 0 0 1 693.5706 1727.3413)" class="st13 st15 st16">REACT  ion</text>
	<text transform="matrix(1 0 0 1 1135.0554 1757.976)" class="st13 st15 st17">team</text>
	<path class="st13" d="M1131.4,1549.1c0,0-112.4,83-142.8,302.7C988.6,1851.8,1024.6,1717.2,1131.4,1549.1z"/>
</g>
</svg>
